HIERARCHY
ROOT Haolin_28_06:Solving:Hips
{
	OFFSET 0.000000 0.000000 0.000000
	CHANNELS 6 Xposition Yposition Zposition Xrotation Yrotation Zrotation
	JOINT Haolin_28_06:Solving:Spine
	{
		OFFSET 0.000000 -12.181966 2.015561
		CHANNELS 6 Xposition Yposition Zposition Xrotation Yrotation Zrotation
		JOINT Haolin_28_06:Solving:Spine1
		{
			OFFSET 0.000000 -8.890296 1.567602
			CHANNELS 6 Xposition Yposition Zposition Xrotation Yrotation Zrotation
			JOINT Haolin_28_06:Solving:Spine2
			{
				OFFSET 0.000000 -8.993092 0.786796
				CHANNELS 6 Xposition Yposition Zposition Xrotation Yrotation Zrotation
				JOINT Haolin_28_06:Solving:Spine3
				{
					OFFSET 0.000000 -9.027443 0.000000
					CHANNELS 6 Xposition Yposition Zposition Xrotation Yrotation Zrotation
					JOINT Haolin_28_06:Solving:Neck
					{
						OFFSET 0.000000 -11.606712 -1.160669
						CHANNELS 6 Xposition Yposition Zposition Xrotation Yrotation Zrotation
						JOINT Haolin_28_06:Solving:Neck1
						{
							OFFSET 0.000000 -7.471592 -0.653680
							CHANNELS 6 Xposition Yposition Zposition Xrotation Yrotation Zrotation
							JOINT Haolin_28_06:Solving:Head
							{
								OFFSET 0.000000 -7.386181 -1.302382
								CHANNELS 6 Xposition Yposition Zposition Xrotation Yrotation Zrotation
								JOINT Haolin_28_06:Solving:HeadEnd
								{
									OFFSET 0.000000 -9.728081 0.000002
									CHANNELS 6 Xposition Yposition Zposition Xrotation Yrotation Zrotation
									End Site
									{
										OFFSET 0.000000 -9.728081 0.000002
									}
								}
							}
						}
					}
					JOINT Haolin_28_06:Solving:RightShoulder
					{
						OFFSET 0.000000 -8.290508 -5.270916
						CHANNELS 6 Xposition Yposition Zposition Xrotation Yrotation Zrotation
						JOINT Haolin_28_06:Solving:RightArm
						{
							OFFSET -19.261074 -0.000008 0.000000
							CHANNELS 6 Xposition Yposition Zposition Xrotation Yrotation Zrotation
							JOINT Haolin_28_06:Solving:RightForeArm
							{
								OFFSET -30.691700 -0.000011 0.000000
								CHANNELS 6 Xposition Yposition Zposition Xrotation Yrotation Zrotation
								JOINT Haolin_28_06:Solving:RightHand
								{
									OFFSET -20.216934 -0.000008 0.000000
									CHANNELS 6 Xposition Yposition Zposition Xrotation Yrotation Zrotation
									JOINT Haolin_28_06:Solving:RightHandThumb1
									{
										OFFSET -4.948814 2.881329 -3.679893
										CHANNELS 6 Xposition Yposition Zposition Xrotation Yrotation Zrotation
										End Site
										{
											OFFSET -7.039886 -0.000004 -7.104978
										}
									}
									JOINT Haolin_28_06:Solving:RightHandMiddle1
									{
										OFFSET -13.196846 -0.000004 0.084595
										CHANNELS 6 Xposition Yposition Zposition Xrotation Yrotation Zrotation
										End Site
										{
											OFFSET -10.002037 -0.000004 0.000000
										}
									}
								}
							}
						}
					}
					JOINT Haolin_28_06:Solving:LeftShoulder
					{
						OFFSET 0.000000 -8.290508 -5.270916
						CHANNELS 6 Xposition Yposition Zposition Xrotation Yrotation Zrotation
						JOINT Haolin_28_06:Solving:LeftArm
						{
							OFFSET 19.261074 -0.000008 0.000000
							CHANNELS 6 Xposition Yposition Zposition Xrotation Yrotation Zrotation
							JOINT Haolin_28_06:Solving:LeftForeArm
							{
								OFFSET 30.691700 -0.000011 0.000000
								CHANNELS 6 Xposition Yposition Zposition Xrotation Yrotation Zrotation
								JOINT Haolin_28_06:Solving:LeftHand
								{
									OFFSET 20.216934 -0.000008 0.000000
									CHANNELS 6 Xposition Yposition Zposition Xrotation Yrotation Zrotation
									JOINT Haolin_28_06:Solving:LeftHandThumb1
									{
										OFFSET 4.948814 2.881329 -3.679893
										CHANNELS 6 Xposition Yposition Zposition Xrotation Yrotation Zrotation
										End Site
										{
											OFFSET 7.039886 -0.000004 -7.104978
										}
									}
									JOINT Haolin_28_06:Solving:LeftHandMiddle1
									{
										OFFSET 13.196846 -0.000004 0.084595
										CHANNELS 6 Xposition Yposition Zposition Xrotation Yrotation Zrotation
										End Site
										{
											OFFSET 10.002037 -0.000004 0.000000
										}
									}
								}
							}
						}
					}
				}
			}
		}
	}
	JOINT Haolin_28_06:Solving:RightUpLeg
	{
		OFFSET -10.083070 0.000000 0.000000
		CHANNELS 6 Xposition Yposition Zposition Xrotation Yrotation Zrotation
		JOINT Haolin_28_06:Solving:RightLeg
		{
			OFFSET 0.000000 47.042522 -0.000008
			CHANNELS 6 Xposition Yposition Zposition Xrotation Yrotation Zrotation
			JOINT Haolin_28_06:Solving:RightFoot
			{
				OFFSET 0.000000 38.766415 -0.000006
				CHANNELS 6 Xposition Yposition Zposition Xrotation Yrotation Zrotation
				JOINT Haolin_28_06:Solving:RightForeFoot
				{
					OFFSET 0.000000 3.531212 -0.000000
					CHANNELS 6 Xposition Yposition Zposition Xrotation Yrotation Zrotation
					JOINT Haolin_28_06:Solving:RightToeBase
					{
						OFFSET 0.000000 0.000000 -13.829352
						CHANNELS 6 Xposition Yposition Zposition Xrotation Yrotation Zrotation
						JOINT Haolin_28_06:Solving:RightToeBaseEnd
						{
							OFFSET 0.000000 0.000000 -4.034167
							CHANNELS 6 Xposition Yposition Zposition Xrotation Yrotation Zrotation
							End Site
							{
								OFFSET 0.000000 -4.034164 0.000004
							}
						}
					}
				}
			}
		}
	}
	JOINT Haolin_28_06:Solving:LeftUpLeg
	{
		OFFSET 10.083070 0.000000 0.000000
		CHANNELS 6 Xposition Yposition Zposition Xrotation Yrotation Zrotation
		JOINT Haolin_28_06:Solving:LeftLeg
		{
			OFFSET 0.000000 47.042522 -0.000008
			CHANNELS 6 Xposition Yposition Zposition Xrotation Yrotation Zrotation
			JOINT Haolin_28_06:Solving:LeftFoot
			{
				OFFSET 0.000000 38.766415 -0.000006
				CHANNELS 6 Xposition Yposition Zposition Xrotation Yrotation Zrotation
				JOINT Haolin_28_06:Solving:LeftForeFoot
				{
					OFFSET 0.000000 3.531212 -0.000000
					CHANNELS 6 Xposition Yposition Zposition Xrotation Yrotation Zrotation
					JOINT Haolin_28_06:Solving:LeftToeBase
					{
						OFFSET 0.000000 0.000000 -13.829352
						CHANNELS 6 Xposition Yposition Zposition Xrotation Yrotation Zrotation
						JOINT Haolin_28_06:Solving:LeftToeBaseEnd
						{
							OFFSET 0.000000 0.000000 -4.855067
							CHANNELS 6 Xposition Yposition Zposition Xrotation Yrotation Zrotation
							End Site
							{
								OFFSET 0.000000 -4.855064 0.000004
							}
						}
					}
				}
			}
		}
	}
}
MOTION
Frames: 4
Frame Time: 0.041667
-63.058140 -172.723846 -88.334160 121.618799 0.500308 -1.879625 -0.000006 -12.181955 2.015640 24.246471 -0.546004 -1.726389 -0.000004 -8.890313 1.567601 7.546031 -0.067670 -0.777714 -0.000013 -8.993100 0.786799 7.810887 -1.981627 0.548818 0.000009 -9.027458 -0.000017 -0.405832 -1.294536 3.879990 0.000002 -11.606728 -1.160661 -11.645927 3.216752 -0.798327 0.000001 -7.471591 -0.653675 -7.087099 3.291196 -4.109052 0.000009 -7.386191 -1.302381 -3.954094 0.918939 -3.151472 -0.000009 -9.728096 0.000021 0.000005 0.000001 -0.000000 0.000019 -8.290535 -5.270923 -0.000003 10.769923 14.693993 -19.261066 -0.000006 0.000010 -55.899317 -53.376764 -84.816497 -30.691692 -0.000032 0.000002 -24.238103 -10.496365 -4.688758 -20.216944 -0.000022 0.000034 4.416621 -15.047714 16.567669 -4.948802 2.881326 -3.679881 -0.000001 -0.000002 0.000006 -13.196844 0.000007 0.084612 0.000003 0.000001 0.000002 0.000021 -8.290535 -5.270924 -0.000004 -7.084962 -17.200341 19.261082 0.000012 -0.000015 -60.244932 52.883706 84.242030 30.691710 -0.000014 0.000001 -19.302314 11.426459 3.969171 20.216942 -0.000013 -0.000017 1.490965 3.125456 -25.519151 4.948819 2.881336 -3.679883 0.000009 -0.000007 0.000005 13.196868 -0.000009 0.084594 0.000006 -0.000000 -0.000002 -10.083069 0.000007 0.000058 -61.416733 18.630652 11.908691 -0.000018 47.042480 -0.000006 36.569441 -0.000000 -0.000002 -0.000017 38.766407 -0.000030 -1.055782 5.591281 2.758748 0.000030 3.531204 0.000026 -0.000000 0.000000 0.000001 -0.000002 0.000015 -13.829319 -4.136088 -0.000001 0.000000 -0.000017 0.000000 -4.034182 -0.000000 0.000001 0.000000 10.083065 -0.000005 0.000054 -59.328772 -17.665646 -12.865208 0.000004 47.042519 0.000019 37.665539 -0.000005 -0.000002 -0.000001 38.766430 0.000022 -2.948580 -6.779761 7.507934 0.000006 3.531204 0.000046 -0.000000 0.000002 -0.000000 -0.000003 0.000010 -13.829385 3.211929 0.000003 0.000000 0.000010 -0.000008 -4.855066 0.000001 0.000008 -0.000001 
-63.057747 -173.058929 -88.055527 122.425854 0.586667 -1.943335 0.000006 -12.181983 2.015532 24.370752 -0.514646 -1.648847 -0.000001 -8.890312 1.567597 7.703134 -0.088250 -0.748932 0.000004 -8.993075 0.786767 7.672846 -2.139825 0.534041 -0.000000 -9.027446 0.000002 -0.667368 -1.344346 3.903694 -0.000002 -11.606723 -1.160678 -11.315050 3.235709 -0.619922 -0.000002 -7.471606 -0.653689 -7.412380 3.468458 -4.323600 -0.000013 -7.386187 -1.302382 -4.211749 0.948455 -3.214549 0.000010 -9.728088 0.000012 -0.000000 0.000000 -0.000000 -0.000001 -8.290527 -5.270917 -0.000008 10.689068 14.930090 -19.261084 -0.000002 -0.000033 -56.876344 -53.440093 -85.131170 -30.691711 -0.000022 -0.000004 -23.981313 -10.174537 -4.493030 -20.216927 -0.000004 -0.000001 4.489350 -15.005543 16.869778 -4.948798 2.881342 -3.679847 -0.000000 -0.000000 0.000002 -13.196839 0.000023 0.084596 0.000002 0.000001 -0.000002 0.000002 -8.290527 -5.270917 -0.000007 -7.224999 -17.376514 19.261072 -0.000005 -0.000009 -61.568671 53.361847 84.685494 30.691715 -0.000045 -0.000013 -20.049559 11.432803 4.137557 20.216928 0.000016 -0.000008 1.424953 2.883529 -26.311670 4.948797 2.881350 -3.679880 0.000000 0.000007 -0.000002 13.196834 0.000000 0.084587 0.000006 0.000001 0.000003 -10.083069 -0.000033 -0.000058 -62.950814 18.736239 12.077800 0.000010 47.042515 -0.000019 37.441987 0.000002 -0.000001 -0.000004 38.766415 -0.000012 -1.285155 5.305640 2.905084 0.000026 3.531219 -0.000003 -0.000001 0.000002 0.000000 0.000014 0.000015 -13.829370 -4.175863 -0.000001 -0.000000 0.000032 0.000008 -4.034182 -0.000000 0.000002 0.000000 10.083075 -0.000015 -0.000011 -60.870755 -17.838798 -13.160205 -0.000003 47.042496 -0.000021 38.575290 -0.000004 -0.000003 -0.000014 38.766407 -0.000018 -3.249462 -6.635310 7.434342 -0.000005 3.531204 0.000012 0.000000 -0.000001 0.000000 0.000001 -0.000001 -13.829313 3.238225 -0.000004 0.000000 -0.000007 0.000000 -4.855035 0.000001 0.000003 -0.000001 
-63.029247 -173.391617 -87.771149 123.240409 0.631867 -2.078013 0.000003 -12.181979 2.015541 24.401701 -0.498237 -1.621379 0.000009 -8.890290 1.567640 7.799349 -0.086408 -0.752310 0.000003 -8.993070 0.786799 7.741222 -2.112333 0.623558 -0.000003 -9.027434 -0.000028 -0.758119 -1.316267 4.047108 0.000000 -11.606712 -1.160640 -11.422009 3.171390 -0.593760 -0.000007 -7.471603 -0.653718 -7.644331 3.625191 -4.459769 0.000001 -7.386178 -1.302387 -4.344773 0.978661 -3.279271 0.000010 -9.728088 -0.000017 0.000002 0.000001 -0.000001 0.000000 -8.290516 -5.270888 -0.000005 10.599800 15.138247 -19.261076 -0.000025 0.000002 -58.306948 -53.385790 -85.705555 -30.691687 -0.000001 0.000021 -23.757689 -9.851429 -4.306839 -20.216927 0.000004 0.000021 4.555092 -14.950833 17.161103 -4.948805 2.881321 -3.679861 0.000002 0.000007 0.000003 -13.196836 0.000019 0.084641 0.000001 -0.000003 0.000002 -0.000013 -8.290516 -5.270887 -0.000009 -7.683264 -17.655868 19.261063 -0.000003 -0.000014 -63.337239 53.656289 85.252263 30.691696 -0.000023 -0.000003 -20.738771 11.375655 4.271120 20.216896 0.000022 0.000009 1.386019 2.757860 -26.696216 4.948802 2.881284 -3.679881 0.000004 0.000000 -0.000006 13.196840 -0.000025 0.084597 0.000000 -0.000001 0.000002 -10.083058 -0.000004 -0.000033 -64.566174 18.804851 12.353363 0.000011 47.042549 0.000002 38.383590 0.000000 -0.000001 0.000036 38.766418 -0.000027 -1.501838 5.001815 3.089341 0.000014 3.531219 -0.000059 0.000000 0.000002 0.000000 -0.000003 0.000012 -13.829383 -4.276284 0.000003 -0.000001 -0.000000 0.000008 -4.034198 -0.000000 0.000003 0.000000 10.083067 -0.000005 -0.000005 -62.367735 -18.040929 -13.354604 -0.000003 47.042542 -0.000018 39.441740 -0.000001 -0.000003 0.000005 38.766422 0.000009 -3.543276 -6.510937 7.330775 -0.000007 3.531204 -0.000001 -0.000000 -0.000003 -0.000000 -0.000007 0.000008 -13.829348 3.232313 -0.000000 0.000000 -0.000005 0.000007 -4.855066 -0.000002 0.000000 0.000001 
-63.004356 -173.720886 -87.484528 124.063174 0.690035 -2.193708 0.000006 -12.181970 2.015547 24.423184 -0.504309 -1.583028 0.000002 -8.890307 1.567553 7.895374 -0.089640 -0.750648 0.000005 -8.993109 0.786810 7.789342 -2.180280 0.728798 0.000002 -9.027460 -0.000028 -0.855541 -1.292348 4.168236 -0.000004 -11.606722 -1.160682 -11.507930 3.078015 -0.599270 0.000010 -7.471581 -0.653673 -7.859581 3.863356 -4.571095 -0.000013 -7.386191 -1.302380 -4.489410 1.012671 -3.336498 -0.000001 -9.728088 0.000022 0.000004 0.000001 -0.000000 0.000003 -8.290504 -5.270932 -0.000005 10.589136 15.319187 -19.261084 0.000007 -0.000011 -59.542591 -53.201491 -86.117668 -30.691713 -0.000016 0.000010 -23.722359 -9.648181 -4.212128 -20.216940 -0.000014 -0.000002 4.544343 -14.878797 17.199055 -4.948823 2.881314 -3.679875 -0.000007 0.000002 -0.000001 -13.196877 -0.000004 0.084618 -0.000003 0.000002 -0.000000 -0.000004 -8.290504 -5.270931 -0.000004 -8.065840 -17.938157 19.261066 -0.000053 0.000004 -65.289082 53.788891 86.015625 30.691717 -0.000034 -0.000006 -21.295116 11.209660 4.333253 20.216919 -0.000000 0.000007 1.366213 2.701008 -26.844172 4.948795 2.881329 -3.679903 -0.000005 -0.000005 0.000004 13.196820 -0.000013 0.084595 0.000001 -0.000000 0.000006 -10.083073 -0.000016 -0.000049 -66.127870 18.851290 12.573657 -0.000005 47.042500 0.000060 39.247636 0.000001 -0.000003 -0.000010 38.766430 -0.000026 -1.749578 4.748407 3.191885 0.000010 3.531219 -0.000018 -0.000001 0.000003 -0.000000 -0.000014 0.000005 -13.829350 -4.276344 -0.000001 -0.000000 0.000020 0.000015 -4.034195 -0.000001 0.000004 0.000000 10.083080 0.000010 -0.000012 -63.881769 -18.216955 -13.579151 0.000002 47.042503 0.000002 40.315451 -0.000002 -0.000001 -0.000013 38.766426 -0.000018 -3.842510 -6.395921 7.244642 0.000004 3.531220 0.000035 -0.000000 -0.000001 -0.000000 -0.000013 0.000010 -13.829370 3.222790 0.000000 -0.000000 -0.000001 -0.000008 -4.855089 0.000001 0.000003 -0.000001 
